<svg width="1044" height="192" viewBox="0 0 1044 192" fill="none" xmlns="http://www.w3.org/2000/svg">
<path d="M289.737 148C263.676 148 244 127.08 244 99.8717C244 72.7914 263.676 52 289.737 52C312.019 52 330.391 66.7594 334.04 88.7059H323.746C320.749 72.2781 306.937 60.5989 289.737 60.5989C269.018 60.5989 254.033 77.2834 254.033 99.8717C254.033 122.717 269.018 139.401 289.737 139.401C307.067 139.401 320.879 127.594 323.746 111.166H334.04C330.391 133.112 312.019 148 289.737 148Z" fill="black"></path>
<path d="M353.128 106.674V146.075H344.006V53.9251H353.128V90.8877C357.428 82.8021 365.246 77.1551 375.149 77.1551C389.482 77.1551 398.734 86.139 398.734 102.182V146.075H389.613V105.262C389.613 92.2995 383.619 84.984 372.413 84.984C361.728 84.984 353.128 94.0963 353.128 106.674Z" fill="black"></path>
<path d="M421.848 109.882V146.075H412.726V78.4385H421.196V93.8396C425.887 83.8289 436.051 77.4118 447.387 77.4118V86.7808C432.923 86.2674 421.848 95.123 421.848 109.882Z" fill="black"></path>
<path d="M480.691 147.358C461.797 147.358 448.115 132.599 448.115 112.193C448.115 91.9144 461.797 77.2834 480.691 77.2834C499.715 77.2834 513.397 91.9144 513.397 112.193C513.397 132.599 499.715 147.358 480.691 147.358ZM480.691 139.529C494.112 139.529 504.146 129.005 504.146 112.193C504.146 95.6364 494.112 85.1123 480.691 85.1123C467.4 85.1123 457.367 95.6364 457.367 112.193C457.367 129.005 467.4 139.529 480.691 139.529Z" fill="black"></path>
<path d="M532.056 106.674V146.075H522.935V78.4385H531.405V91.1444C535.835 82.8021 544.174 77.1551 554.078 77.1551C568.411 77.1551 577.663 86.139 577.663 102.182V146.075H568.541V105.262C568.541 92.2995 562.547 84.984 551.341 84.984C540.656 84.984 532.056 94.0963 532.056 106.674Z" fill="black"></path>
<path d="M603.513 62.7807C603.513 66.7594 600.516 69.5829 596.085 69.5829C591.785 69.5829 588.788 66.7594 588.788 62.7807C588.788 58.9305 591.785 56.107 596.085 56.107C600.516 56.107 603.513 58.9305 603.513 62.7807ZM600.776 146.075H591.655V78.4385H600.776V146.075Z" fill="black"></path>
<path d="M640.998 147.487C622.886 147.487 610.247 132.984 610.247 112.193C610.247 91.6578 623.017 77.1551 640.998 77.1551C657.026 77.1551 668.493 87.6791 671.229 104.62H661.977C659.892 92.2995 652.074 84.984 640.998 84.984C628.229 84.984 619.498 96.0214 619.498 112.193C619.498 128.62 628.229 139.658 640.998 139.658C652.205 139.658 659.892 132.471 661.977 119.893H671.229C668.753 137.091 657.156 147.487 640.998 147.487Z" fill="black"></path>
<path d="M689.861 146.075H680.74V53.9251H689.861V146.075Z" fill="black"></path>
<path d="M731.387 147.358C712.102 147.358 699.332 133.112 699.332 111.679C699.332 91.9144 712.623 77.1551 730.865 77.1551C750.411 77.1551 763.181 92.6845 761.617 114.374H708.453C709.235 130.417 717.835 140.299 731.256 140.299C742.723 140.299 750.672 134.011 752.887 123.23H761.878C758.75 138.246 747.153 147.358 731.387 147.358ZM730.735 84.0856C718.356 84.0856 709.626 93.4545 708.453 108.214H752.105C751.323 93.0695 743.375 84.0856 730.735 84.0856Z" fill="black"></path>
<path d="M847.575 146.075H794.15V53.9251H803.923V137.476H847.575V146.075Z" fill="black"></path>
<path d="M898.457 146.075V133.754C894.417 142.225 886.078 147.358 875.393 147.358C861.19 147.358 851.938 139.529 851.938 127.337C851.938 114.118 862.623 107.187 883.472 107.187C887.641 107.187 890.769 107.444 897.544 107.957V102.31C897.544 91.016 891.42 84.3422 880.996 84.3422C869.79 84.3422 862.753 91.1444 862.623 102.182H854.284C854.674 87.1658 865.229 77.1551 880.866 77.1551C896.893 77.1551 906.275 86.3957 906.275 102.053V146.075H898.457ZM860.669 127.08C860.669 135.294 867.053 140.813 876.696 140.813C889.466 140.813 897.544 132.599 897.544 119.893V113.861C891.681 113.348 887.641 113.219 883.863 113.219C868.226 113.219 860.669 117.711 860.669 127.08Z" fill="black"></path>
<path d="M983.187 112.193C983.187 132.984 971.329 147.358 952.956 147.358C942.402 147.358 933.541 141.711 928.72 131.829V146.075H920.25V53.9251H929.371V92.6845C933.802 82.8021 942.532 77.1551 952.956 77.1551C971.329 77.1551 983.187 91.4011 983.187 112.193ZM973.935 112.193C973.935 94.9946 964.944 84.984 951.523 84.984C938.623 84.984 929.241 94.8663 929.241 111.936C929.241 128.877 938.362 139.529 951.523 139.529C964.944 139.529 973.935 129.39 973.935 112.193Z" fill="black"></path>
<path d="M1044 127.209C1044 139.658 1033.84 147.358 1016.9 147.358C999.827 147.358 989.403 138.888 988.1 124.898H996.83C997.482 134.524 1005.17 140.556 1016.9 140.556C1028.1 140.556 1034.88 136.321 1034.88 128.62C1034.88 121.947 1030.97 118.866 1020.55 116.813L1010.64 114.888C997.612 112.449 990.706 106.16 990.706 96.4064C990.706 85.1123 1000.87 77.1551 1015.85 77.1551C1031.62 77.1551 1042.05 85.4973 1043.09 98.9733H1034.49C1033.58 89.6043 1026.67 84.0856 1015.85 84.0856C1006.21 84.0856 999.566 88.5775 999.566 95.6364C999.566 102.31 1003.74 105.519 1013.9 107.444L1024.19 109.369C1037.88 111.936 1044 117.583 1044 127.209Z" fill="black"></path>
<path d="M88.7127 63.7565C89.1758 63.7408 88.9493 63.6988 89.3956 63.956C91.3678 72.1534 94.3451 81.1422 96.0126 89.2485C97.5445 81.4154 100.759 71.669 102.696 63.6634C103.88 64.0163 105.201 64.3172 106.407 64.6188C103.954 72.6914 101.825 81.5393 99.5729 89.7417C105.731 83.7132 111.901 77.452 117.977 71.3316L120.624 73.9495C119.935 74.6929 119.162 75.4645 118.433 76.1716C112.922 81.5172 107.649 87.2922 101.989 92.4691C109.574 90.0443 119.571 87.692 127.409 85.6081C127.721 86.8204 127.975 88.1083 128.239 89.3368C119.948 91.3538 111.28 93.7874 103.021 96.0229C107.178 96.7077 111.56 98.3302 115.706 99.3001C119.885 100.278 124.084 101.744 128.297 102.568C127.994 103.837 127.646 105.06 127.293 106.316C118.935 103.931 110.368 101.906 102.027 99.4616C108.341 105.286 114.351 111.987 120.635 117.879L117.925 120.624C112.585 114.728 105.398 108.068 99.6869 102.223C101.398 109.961 104.259 119.55 106.354 127.332C105.279 127.587 104.168 127.884 103.093 128.157L102.673 127.979L98.5506 112.677C97.7051 109.533 96.6063 105.885 96.0821 102.72C94.0745 111.032 91.4998 119.95 89.2912 128.301C88.1046 127.93 86.8143 127.604 85.6083 127.276C85.7735 126.802 85.9085 126.32 86.0452 125.838C88.2759 117.956 90.233 109.999 92.4644 102.117C86.5861 108.184 79.7102 114.475 74.0822 120.62C73.2154 119.717 72.2373 118.781 71.343 117.894C77.4909 112.143 83.8414 105.444 89.9266 99.4826C87.5172 100.334 83.322 101.313 80.7517 101.995L64.6038 106.273C64.291 105.124 64.0457 103.78 63.8017 102.602C71.8736 100.529 81.0496 97.7186 89.0275 95.9611C83.3908 94.6642 77.7075 92.9384 72.1031 91.4823C69.3965 90.7791 66.4341 89.8229 63.7072 89.3223C63.9979 88.103 64.3581 86.8226 64.6812 85.6042C72.9596 87.857 81.7451 90.0063 89.9209 92.4348C83.6796 86.4697 77.6352 80.0855 71.4168 74.0448C72.2812 73.1238 73.1988 72.1986 74.0796 71.2885C75.9917 73.4867 78.7626 76.103 80.8923 78.2286L92.4061 89.7729C90.2695 82.2337 88.0301 71.7358 85.5933 64.6133C86.5896 64.4134 87.7254 64.0469 88.7127 63.7565Z" fill="black"></path>
<path d="M94.0774 13.6L97.9211 13.5595L97.9299 45.1715C97.9319 50.7828 98.0904 57.4784 97.8462 63.0069C96.4349 62.94 95.4871 62.9466 94.0769 63.0163L94.0774 13.6Z" fill="black"></path>
<path d="M95.1495 128.938C96.086 128.937 97.0224 128.925 97.9586 128.905L97.9154 163.12C97.9123 164.984 98.1452 177.495 97.6235 178.297L97.1487 178.336L94.1441 178.353C94.0167 174.542 94.0288 129.507 94.2603 129.078L95.1495 128.938Z" fill="black"></path>
<path d="M113.952 123.634C114.491 123.971 136.368 162.117 138.824 166.381L135.724 168.168C135.261 167.911 113.079 129.18 110.908 125.439C112.015 124.828 112.886 124.327 113.952 123.634Z" fill="black"></path>
<path d="M66.2165 110.912C66.7661 111.063 68.1128 113.481 68.507 114.117C64.8804 115.793 57.4756 120.341 53.7207 122.509L25.792 138.678C25.1966 138.396 24.1249 136.32 23.6887 135.587C35.3355 128.518 47.5121 122.042 59.2231 115.055C61.5608 113.66 63.9162 112.387 66.2165 110.912Z" fill="black"></path>
<path d="M125.466 110.801C128.341 112.345 131.123 114.168 133.966 115.757C145.491 122.198 156.827 129.087 168.353 135.518C167.718 136.473 167.035 137.775 166.462 138.795C162.453 136.265 157.223 133.431 153.018 131.009C143.165 125.367 133.342 119.673 123.55 113.926C124.427 112.706 124.825 112.173 125.466 110.801Z" fill="black"></path>
<path d="M25.5365 53.1101C35.2212 59.2623 46.1589 64.6435 55.982 70.7014C59.7307 73.0133 64.5918 75.9395 68.4518 77.8725C67.587 79.1429 67.2362 79.7807 66.5608 81.163C63.3828 79.4477 59.9619 77.2421 56.7806 75.4164L23.652 56.3731C24.3569 55.2358 24.9126 54.2934 25.5365 53.1101Z" fill="black"></path>
<path d="M166.245 53.2932L166.322 53.2971C166.915 53.6655 167.868 55.6905 168.285 56.4557C163.368 58.9893 157.629 62.5169 152.738 65.3447L125.667 80.9742C125.237 80.7406 123.883 78.4672 123.535 77.9199C125.516 76.7216 127.569 75.5355 129.591 74.4032C141.866 67.5269 153.933 60.0875 166.245 53.2932Z" fill="black"></path>
<path d="M56.2934 23.8056C56.9557 24.2032 78.5913 62.2555 81.1631 66.4732L78.0404 68.2578C77.3481 67.918 55.3093 29.2067 53.1894 25.5517C54.0586 24.972 55.3508 24.3182 56.2934 23.8056Z" fill="black"></path>
<path d="M135.563 23.6596L138.774 25.4894C136.021 30.6307 132.68 36.1714 129.74 41.2594L114.113 68.2241C113.702 68.1254 111.38 66.7848 110.839 66.4811C113.498 62.2046 116.378 56.9316 118.943 52.4976L135.563 23.6596Z" fill="black"></path>
<path d="M77.8889 123.593C78.6602 123.952 80.345 124.99 81.1488 125.456L56.415 168.326C55.5176 167.728 54.2101 166.995 53.2568 166.426C55.4106 162.211 58.6655 156.922 61.0696 152.752L77.8889 123.593Z" fill="black"></path>
<path d="M13.6352 94.1194C29.6885 93.8604 46.9514 93.9769 63.0328 94.1358L63.0411 97.8157C46.7373 97.5447 30.003 97.8806 13.6313 97.7726L13.6352 94.1194Z" fill="black"></path>
<path d="M128.934 94.1135L178.365 94.1207L178.363 97.8017C162.077 97.4748 145.339 98.0191 128.968 97.7451L128.934 94.1135Z" fill="black"></path>
<path d="M36.2114 153.034C36.7872 153.217 38.5207 155.015 39.0463 155.525C35.31 159.379 31.3698 163.241 27.5717 167.05C27.1328 166.957 25.227 165.053 24.7421 164.6C28.6114 160.791 32.4349 156.935 36.2114 153.034Z" fill="black"></path>
<path d="M155.496 153.079C156.073 153.158 166.094 163.414 167.258 164.573L164.725 167.055C164.162 166.997 154.204 156.781 152.932 155.499C153.809 154.75 154.665 153.886 155.496 153.079Z" fill="black"></path>
<path d="M118.972 175.261C119.46 175.616 122.84 189.024 123.465 190.976C122.42 191.214 121.141 191.591 120.086 191.875C119.144 191.138 116.171 178.293 115.511 176.025C116.668 175.784 117.821 175.529 118.972 175.261Z" fill="black"></path>
<path d="M72.0116 0.00213388C72.5166 0.405655 76.0717 14.314 76.5356 15.8895C75.3842 16.1427 74.2351 16.4051 73.0878 16.677C72.4799 16.0979 69.0732 2.66585 68.6049 0.910476C69.7143 0.69236 70.9157 0.316328 72.0116 0.00213388Z" fill="black"></path>
<path d="M164.552 24.7927C164.992 25.1098 166.749 26.8709 167.238 27.3449C163.722 30.8978 159.041 35.2755 155.806 38.9047C155.139 38.6036 153.575 36.9645 152.963 36.3652L164.552 24.7927Z" fill="black"></path>
<path d="M27.4029 24.8119C27.9455 25.1762 30.0051 27.2992 30.5628 27.8472C33.4171 30.652 36.1545 33.6218 39.0816 36.3518C38.2257 37.0936 37.2935 38.0894 36.4861 38.9079C36.0073 38.7967 26.1592 28.7455 24.7557 27.3593L27.4029 24.8119Z" fill="black"></path>
<path d="M0.955654 68.629C5.98316 69.7222 11.7715 71.4904 16.8518 72.8084C16.503 73.8907 16.1697 75.2546 15.8674 76.3743C14.6769 76.3847 2.01157 72.6939 0 72.1743L0.955654 68.629Z" fill="black"></path>
<path d="M190.301 68.797L190.901 68.7852C191.517 69.2853 191.793 71.3883 191.959 72.2649C187.369 73.2417 181.503 74.9644 176.869 76.2053L176.388 76.3087C175.776 75.7287 175.403 73.7945 175.138 72.8171C180.058 71.6295 185.34 70.0823 190.301 68.797Z" fill="black"></path>
<path d="M119.741 0C120.782 0.212457 122.35 0.683694 123.417 0.970465C121.993 6.06223 120.457 11.5256 119.243 16.6529C118.125 16.4941 116.608 16.1538 115.468 15.9323C116.939 11.2621 118.563 4.8067 119.741 0Z" fill="black"></path>
<path d="M72.7456 175.169C73.7419 175.447 75.452 175.753 76.5132 175.977C74.9977 181.103 73.5929 186.799 72.1982 192C70.9171 191.588 69.93 191.311 68.6194 191.001C69.8282 186.239 71.9005 179.812 72.7456 175.169Z" fill="black"></path>
<path d="M15.641 115.594C16.1235 115.964 16.6204 118.213 16.8706 119.056C11.6829 120.509 6.47522 121.89 1.24916 123.198C0.580526 122.968 0.192588 120.487 0.00298642 119.693C4.95251 118.578 10.6515 116.891 15.641 115.594Z" fill="black"></path>
<path d="M176.098 115.459C177.535 115.979 180.396 116.655 182.023 117.087C185.279 117.949 188.741 118.971 192 119.681C191.622 121.002 191.388 121.946 191.131 123.297C186.24 122.173 179.6 119.933 175.094 119.108C175.584 117.678 175.81 116.94 176.098 115.459Z" fill="black"></path>
<path d="M112.941 96C112.941 105.356 105.356 112.941 96 112.941C86.6436 112.941 79.0588 105.356 79.0588 96C79.0588 86.6436 86.6436 79.0588 96 79.0588C105.356 79.0588 112.941 86.6436 112.941 96Z" fill="black"></path>
</svg>